#!OML:ASF F:\VICON\USERDATA\INSTALL\rory3\rory3.ASF
:FULLY-SPECIFIED
:DEGREES
1025
root 4.20447 15.959 1.99512 23.7873 -3.77617 -2.78456
lowerback 9.92848 -0.732392 2.0371
upperback 9.63833 -0.842982 -0.891771
thorax 4.4756 -0.281083 -2.02168
lowerneck -19.4497 -0.728 -2.08645
upperneck 38.756 0.322706 -1.51478
head 17.5785 -0.420897 -0.262205
rclavicle 1.43125e-014 -3.57812e-015
rhumerus -53.9943 70.5754 -56.6466
rradius 56.0759
rwrist -15.2616
rhand -9.25236 -40.7453
rfingers 7.12502
rthumb 16.7035 -70.0467
lclavicle 1.43125e-014 -3.57812e-015
lhumerus -35.1484 -78.6475 31.1778
lradius 58.7268
lwrist 62.5284
lhand -25.4292 -25.2335
lfingers 7.12502
lthumb 1.09708 4.74343
rfemur -76.1006 -1.86988 20.0717
rtibia 37.1735
rfoot 36.1404 -1.7386
rtoes 0.954494
lfemur -57.4862 -0.565273 -26.71
ltibia 58.7629
lfoot -23.4221 6.38038
ltoes 9.70898
1026
root 4.20244 15.9565 1.99699 23.7785 -3.79984 -2.75639
lowerback 10.0188 -0.702577 2.00071
upperback 9.60377 -0.803622 -0.908016
thorax 4.39092 -0.264348 -2.01925
lowerneck -19.7217 -0.765975 -1.87212
upperneck 39.1998 0.335779 -1.84264
head 17.9024 -0.435308 -0.456309
rclavicle 9.14409e-015 -1.98785e-015
rhumerus -54.2309 70.4584 -56.9295
rradius 56.0116
rwrist -15.147
rhand -9.33309 -40.8985
rfingers 7.12502
rthumb 16.6258 -70.2064
lclavicle 9.14409e-015 -1.98785e-015
lhumerus -34.8651 -78.8343 30.8601
lradius 58.7659
lwrist 62.6042
lhand -25.4539 -25.3437
lfingers 7.12502
lthumb 1.0732 4.63334
rfemur -76.1073 -1.83319 20.0084
rtibia 37.1891
rfoot 36.1266 -1.73123
rtoes 0.778617
lfemur -57.4525 -0.577188 -26.7292
ltibia 58.7703
lfoot -23.4389 6.39008
ltoes 9.81983
1027
root 4.20179 15.9574 1.99721 23.7343 -3.78443 -2.74633
lowerback 10.0299 -0.686719 2.01559
upperback 9.66906 -0.781787 -0.923454
thorax 4.45609 -0.250696 -2.0456
lowerneck -19.574 -0.772012 -1.93166
upperneck 38.8025 0.263999 -1.66455
head 17.6372 -0.442502 -0.371252
rclavicle -1.19271e-014 -4.77083e-015
rhumerus -54.428 70.4612 -57.1744
rradius 56.0225
rwrist -15.2885
rhand -9.29011 -40.9468
rfingers 7.12502
rthumb 16.6672 -70.2512
lclavicle -1.19271e-014 -4.77083e-015
lhumerus -34.0612 -78.8664 29.9956
lradius 58.818
lwrist 62.6023
lhand -25.7158 -25.4207
lfingers 7.12502
lthumb 0.82026 4.55749
rfemur -76.0724 -1.85324 20.0169
rtibia 37.226
rfoot 35.9975 -1.67106
rtoes 0.375856
lfemur -57.4207 -0.594522 -26.7244
ltibia 58.7796
lfoot -23.4529 6.3853
ltoes 9.63111
1028
root 4.20146 15.9559 1.9965 23.7411 -3.83751 -2.7105
lowerback 9.95151 -0.659913 1.95014
upperback 9.72056 -0.752391 -0.926028
thorax 4.55639 -0.238117 -2.01468
lowerneck -20.0224 -0.799799 -1.89875
upperneck 39.3414 0.263307 -1.73382
head 18.062 -0.454215 -0.419886
rclavicle 3.97569e-016 -8.74653e-015
rhumerus -54.2829 70.4588 -57.0434
rradius 56.0317
rwrist -15.3165
rhand -8.64873 -40.7906
rfingers 7.12502
rthumb 17.2846 -70.0419
lclavicle 3.97569e-016 -8.74653e-015
lhumerus -33.6284 -78.7391 29.6469
lradius 58.7102
lwrist 62.5066
lhand -26.0826 -25.5906
lfingers 7.12502
lthumb 0.465929 4.38866
rfemur -76.1001 -1.8319 19.9728
rtibia 37.259
rfoot 35.9373 -1.75986
rtoes 0.515666
lfemur -57.4652 -0.592218 -26.7716
ltibia 58.8042
lfoot -23.4381 6.47255
ltoes 9.29296
1029
root 4.20064 15.9512 1.9972 23.7727 -3.89706 -2.6947
lowerback 9.93977 -0.634966 1.87914
upperback 9.71727 -0.724437 -0.915739
thorax 4.56107 -0.228751 -1.96586
lowerneck -19.8132 -0.810772 -2.0488
upperneck 39.0062 0.22854 -1.57713
head 17.8146 -0.464031 -0.321439
rclavicle 1.15295e-014 8.74653e-015
rhumerus -54.3247 70.6923 -57.0287
rradius 56.1199
rwrist -15.4961
rhand -8.27372 -40.6591
rfingers 7.12502
rthumb 17.6455 -69.8784
lclavicle 1.15295e-014 8.74653e-015
lhumerus -33.6515 -78.6109 29.8161
lradius 58.5476
lwrist 62.4273
lhand -26.3419 -25.8394
lfingers 7.12502
lthumb 0.215483 4.14022
rfemur -76.1518 -1.78612 19.9306
rtibia 37.2854
rfoot 35.9262 -1.91506
rtoes 0.90665
lfemur -57.521 -0.592001 -26.7958
ltibia 58.8386
lfoot -23.3951 6.55991
ltoes 9.46057
1030
root 4.20099 15.9488 1.99795 23.7795 -3.87136 -2.72366
lowerback 10.0009 -0.648526 1.91212
upperback 9.70046 -0.739428 -0.901821
thorax 4.50866 -0.235577 -1.96815
lowerneck -19.9851 -0.761712 -1.78641
upperneck 39.1658 0.365034 -1.95647
head 17.9531 -0.427019 -0.519349
rclavicle 5.96354e-015 -1.19271e-015
rhumerus -54.3598 70.6627 -57.1205
rradius 56.1059
rwrist -15.4916
rhand -8.26496 -40.4531
rfingers 7.12502
rthumb 17.6539 -69.6717
lclavicle 5.96354e-015 -1.19271e-015
lhumerus -33.7979 -78.4199 30.0039
lradius 58.4518
lwrist 62.2158
lhand -26.2832 -26.0044
lfingers 7.12502
lthumb 0.272268 3.97513
rfemur -76.166 -1.8197 19.9937
rtibia 37.3039
rfoot 35.8889 -1.89719
rtoes 0.805648
lfemur -57.534 -0.627798 -26.7452
ltibia 58.8667
lfoot -23.3732 6.58222
ltoes 9.81613
1031
root 4.20168 15.9507 1.99709 23.7884 -3.83536 -2.77903
lowerback 10.0537 -0.660839 1.99045
upperback 9.67074 -0.749978 -0.891646
thorax 4.44693 -0.237694 -2.00001
lowerneck -20.1109 -0.756368 -1.68732
upperneck 39.3284 0.388374 -2.07105
head 18.0806 -0.421268 -0.589293
rclavicle -7.95139e-016 9.14409e-015
rhumerus -54.3397 70.6101 -57.1703
rradius 56.086
rwrist -15.5672
rhand -8.30123 -40.3572
rfingers 7.12502
rthumb 17.619 -69.5789
lclavicle -7.95139e-016 9.14409e-015
lhumerus -34.0072 -78.385 30.1967
lradius 58.4234
lwrist 62.0075
lhand -26.2569 -26.1886
lfingers 7.12502
lthumb 0.297632 3.79092
rfemur -76.1622 -1.83554 20.0592
rtibia 37.3079
rfoot 35.9183 -1.88099
rtoes 0.858829
lfemur -57.5439 -0.65393 -26.6651
ltibia 58.878
lfoot -23.3406 6.59804
ltoes 9.88985
